<svg width="141" height="141" viewBox="0 0 141 141" fill="none" xmlns="http://www.w3.org/2000/svg">
<path d="M140.241 70.028C140.241 108.564 109.001 139.804 70.4653 139.804C31.928 139.804 0.687988 108.564 0.687988 70.028C0.687988 31.492 31.928 0.252006 70.4653 0.252006C109.001 0.252006 140.241 31.492 140.241 70.028Z" fill="#44BFA7"/>
<path d="M38.5307 64.156C38.14 64.7293 36.9427 113.253 45.4693 123.188H93.732C93.732 123.188 106.913 85.9347 97.9347 64.156H38.244H38.5307" fill="#150A05"/>
<path d="M57.8746 108.833H84.596V90.8281H57.8746V108.833Z" fill="#F9B095"/>
<path d="M77.3519 106.452C77.2799 106.452 77.2066 106.451 77.1346 106.451C72.8 106.415 68.3813 105.447 64.3559 103.851C62.1479 102.975 59.7506 101.792 57.8746 100.14V90.828H84.596V105.727C82.216 106.148 79.7666 106.452 77.3519 106.452" fill="#E4A187"/>
<path d="M100.16 56.952C100.251 56.2894 101.376 55.2107 101.867 54.8467C102.965 54.0361 104.072 54.8694 104.391 55.9254C104.677 56.8707 104.704 57.9347 104.773 58.9147C104.943 61.3054 104.579 63.652 103.501 65.808C102.783 67.2467 101.657 68.4294 100.323 69.3214C100.323 69.3214 98.8853 70.036 98.5999 68.3934L100.16 56.952" fill="#F9B095"/>
<path d="M99.932 58.388C99.996 57.9133 100.801 57.1427 101.152 56.8814C101.939 56.3014 102.729 56.8973 102.96 57.6533C103.165 58.3293 103.184 59.0907 103.233 59.792C103.352 61.5027 103.092 63.1813 102.323 64.7253C101.808 65.7547 101.001 66.6014 100.048 67.24C100.048 67.24 99.02 67.7494 98.8146 66.5747L99.932 58.388" fill="#DD9C83"/>
<path d="M41.632 56.952C41.5413 56.2894 40.416 55.2107 39.924 54.8467C38.828 54.0361 37.7226 54.8694 37.4013 55.9254C37.1133 56.8707 37.0866 57.9347 37.0186 58.9147C36.852 61.3054 37.2133 63.652 38.2893 65.808C39.008 67.2467 40.1346 68.4294 41.4693 69.3214C41.4693 69.3214 42.9066 70.036 43.192 68.3934L41.632 56.952Z" fill="#F9B095"/>
<path d="M41.86 58.388C41.796 57.9133 40.992 57.1427 40.6386 56.8814C39.8533 56.3014 39.0613 56.8973 38.8333 57.6533C38.628 58.3293 38.6106 59.0907 38.5573 59.792C38.44 61.5027 38.6986 63.1813 39.4693 64.7253C39.984 65.7547 40.7893 66.6014 41.7453 67.24C41.7453 67.24 42.7733 67.7494 42.9786 66.5747L41.86 58.388" fill="#DD9C83"/>
<path d="M101.037 59.104C101.037 66.648 99.736 74.276 96.1773 80.804C93.068 86.512 88.4026 91.0827 83.3933 94.7347C79.3306 97.696 74.972 101.145 69.832 100.725C64.4693 100.284 60.2933 95.716 56.3773 92.1507C50.8679 87.136 46.5213 80.908 43.8439 73.58C42.1933 69.064 41.4333 63.9667 41.4333 59.104C41.4333 34.7187 54.776 19.38 71.2346 19.38C87.6946 19.38 101.037 34.7187 101.037 59.104" fill="#F9B095"/>
<path d="M111.892 116.973L82.8773 108.265H59.596L30.58 116.973C30.58 116.973 17.1333 122.691 15.64 140.789H71.2346H126.832C125.339 122.691 111.892 116.973 111.892 116.973" fill="#F9B095"/>
<path d="M111.892 116.973L95.8467 112.159L71.2346 136.751L46.5533 112.18L30.58 116.973C30.58 116.973 17.1333 122.691 15.64 140.789H71.2346H126.832C125.339 122.691 111.892 116.973 111.892 116.973" fill="#ED3947"/>
<path d="M51.0106 29.0653C51.0106 29.0653 65.3626 51.8267 100.944 55.6987C100.944 55.6987 107.677 29.7693 82.6519 17.1613C82.6519 17.1613 63.5 9.25733 51.0106 29.0653" fill="#351F17"/>
<path d="M54.6893 33.6694C54.6893 33.6694 45.4227 39.6654 41.3987 56.4C41.3987 56.4 37.0866 24.8667 59.392 20.928L54.6893 33.6694Z" fill="#351F17"/>
<path d="M91.0573 53.076C91.0573 53.076 100.609 113.827 85.5173 131.02C85.5173 131.02 104.812 128.155 105.767 101.6C105.767 101.6 109.205 47.3454 96.148 28.6214L91.0573 53.076" fill="#351F17"/>
<path d="M50.228 131.02C50.228 131.02 28.0146 128.387 34.128 60.0694C34.128 60.0694 35.656 22.128 57.8746 21.2547L56.5893 35.6507C56.5893 35.6507 43.82 39.4534 45.4693 69.476C45.4693 69.476 44.1693 117.839 50.228 131.02" fill="#351F17"/>
</svg>
