<svg width="141" height="143" viewBox="0 0 141 143" fill="none" xmlns="http://www.w3.org/2000/svg">
<path d="M140.241 69.9104C140.241 108.447 109.001 139.688 70.4653 139.688C31.928 139.688 0.687988 108.447 0.687988 69.9104C0.687988 31.3747 31.928 0.134691 70.4653 0.134691C109.001 0.134691 140.241 31.3747 140.241 69.9104Z" fill="#5A8C35"/>
<path d="M38.5307 65.6161C38.14 66.1891 36.9427 114.714 45.4693 124.647H93.732C93.732 124.647 106.913 87.3948 97.9347 65.6161H38.244H38.5307" fill="#3F0E12"/>
<path d="M57.8746 110.292H84.596V92.288H57.8746V110.292Z" fill="#F9B095"/>
<path d="M77.3519 107.91C77.2799 107.91 77.2066 107.91 77.1346 107.91C72.8 107.875 68.3813 106.905 64.3559 105.309C62.1479 104.435 59.7506 103.252 57.8746 101.6V92.288H84.596V107.186C82.216 107.608 79.7679 107.91 77.3519 107.91Z" fill="#E4A187"/>
<path d="M100.16 58.412C100.251 57.7495 101.376 56.6708 101.867 56.3068C102.965 55.4948 104.072 56.3292 104.391 57.3855C104.677 58.3307 104.704 59.3948 104.773 60.3745C104.943 62.764 104.579 65.112 103.501 67.2683C102.783 68.7068 101.657 69.8891 100.323 70.7812C100.323 70.7812 98.8853 71.4959 98.5999 69.8531L100.16 58.412" fill="#F9B095"/>
<path d="M99.932 59.8469C99.996 59.3735 100.801 58.6016 101.152 58.3402C101.939 57.7599 102.729 58.3573 102.96 59.1136C103.165 59.7896 103.184 60.5505 103.233 61.2521C103.352 62.9625 103.092 64.6412 102.323 66.1839C101.808 67.2136 101.001 68.0615 100.048 68.7C100.048 68.7 99.02 69.2093 98.8146 68.035L99.932 59.8469" fill="#DD9C83"/>
<path d="M41.632 58.412C41.5413 57.7495 40.416 56.6708 39.924 56.3068C38.828 55.4948 37.7226 56.3292 37.4013 57.3855C37.1133 58.3307 37.0866 59.3948 37.0186 60.3745C36.852 62.764 37.2133 65.112 38.2893 67.2683C39.008 68.7068 40.1346 69.8891 41.4693 70.7812C41.4693 70.7812 42.9066 71.4959 43.192 69.8531L41.632 58.412Z" fill="#F9B095"/>
<path d="M41.86 59.8469C41.796 59.3735 40.992 58.6016 40.6386 58.3402C39.8533 57.7599 39.0613 58.3573 38.8333 59.1136C38.628 59.7896 38.6106 60.5505 38.5573 61.2521C38.44 62.9625 38.6986 64.6412 39.4693 66.1839C39.984 67.2136 40.7893 68.0615 41.7453 68.7C41.7453 68.7 42.7733 69.2093 42.9786 68.035L41.86 59.8469" fill="#DD9C83"/>
<path d="M101.037 60.5626C101.037 68.1068 99.736 75.735 96.1773 82.2626C93.068 87.9719 88.4026 92.5412 83.3933 96.1948C79.3306 99.1547 74.972 102.605 69.832 102.185C64.4693 101.744 60.2933 97.176 56.3773 93.6104C50.8679 88.5959 46.5213 82.3667 43.8439 75.0386C42.1933 70.524 41.4333 65.4255 41.4333 60.5626C41.4333 36.1774 54.776 20.8387 71.2346 20.8387C87.6946 20.8387 101.037 36.1774 101.037 60.5626" fill="#F9B095"/>
<path d="M111.892 118.433L82.8773 109.725H59.596L30.58 118.433C30.58 118.433 17.1333 124.149 15.64 142.249H71.2346H126.832C125.339 124.149 111.892 118.433 111.892 118.433" fill="#F9B095"/>
<path d="M111.892 118.433L95.8467 113.617L71.2346 138.21L46.5533 113.64L30.58 118.433C30.58 118.433 17.1333 124.149 15.64 142.249H71.2346H126.832C125.339 124.149 111.892 118.433 111.892 118.433" fill="#2E6A87"/>
<path d="M51.0106 30.5253C51.0106 30.5253 65.3626 53.2864 100.944 57.1588C100.944 57.1588 107.677 31.228 82.6519 18.62C82.6519 18.62 63.5 10.7173 51.0106 30.5253Z" fill="#661923"/>
<path d="M54.6893 35.1293C54.6893 35.1293 45.4227 41.1253 41.3987 57.8599C41.3987 57.8599 37.0866 26.3267 59.392 22.388L54.6893 35.1293Z" fill="#351F17"/>
<path d="M91.0573 54.535C91.0573 54.535 100.609 115.285 85.5173 132.48C85.5173 132.48 104.812 129.615 105.767 103.06C105.767 103.06 109.205 48.8052 96.148 30.0814L91.0573 54.535Z" fill="#661923"/>
<path d="M50.228 132.48C50.228 132.48 28.0146 129.847 34.128 61.5292C34.128 61.5292 35.656 23.588 57.8746 22.7147L56.5893 37.1107C56.5893 37.1107 43.82 40.9134 45.4693 70.936C45.4693 70.936 44.1693 119.297 50.228 132.48" fill="#661923"/>
</svg>
