<svg width="140" height="143" viewBox="0 0 140 143" fill="none" xmlns="http://www.w3.org/2000/svg">
<path d="M139.683 69.9104C139.683 108.447 108.443 139.688 69.9066 139.688C31.3693 139.688 0.129272 108.447 0.129272 69.9104C0.129272 31.3747 31.3693 0.134691 69.9066 0.134691C108.443 0.134691 139.683 31.3747 139.683 69.9104Z" fill="#F46F3F"/>
<path d="M56.5453 110.889H83.2682V92.8839H56.5453V110.889Z" fill="#F9B095"/>
<path d="M76.0373 108.507C75.9599 108.507 75.884 108.507 75.8066 108.505C71.4706 108.472 67.0506 107.503 63.0266 105.907C60.8186 105.031 58.4213 103.848 56.5453 102.196V92.8839H83.2679V107.784C80.8933 108.204 78.4453 108.507 76.0373 108.507" fill="#E4A187"/>
<path d="M97.804 59.5412C97.8906 58.8891 98.9759 57.8229 99.4506 57.4625C100.509 56.6615 101.577 57.4855 101.887 58.5292C102.164 59.4615 102.189 60.512 102.255 61.4812C102.417 63.8412 102.068 66.1599 101.028 68.2907C100.335 69.712 99.2466 70.8803 97.9613 71.7599C97.9613 71.7599 96.5746 72.4667 96.2986 70.8427L97.804 59.5412" fill="#F9B095"/>
<path d="M97.5839 60.9599C97.6453 60.4921 98.4213 59.7292 98.7613 59.4719C99.5199 58.8984 100.283 59.488 100.503 60.2349C100.703 60.9041 100.72 61.6531 100.768 62.3479C100.884 64.0375 100.633 65.6959 99.8906 67.2197C99.3933 68.2375 98.6159 69.0735 97.6946 69.7041C97.6946 69.7041 96.7026 70.2093 96.5053 69.0479L97.5839 60.9599Z" fill="#DD9C83"/>
<path d="M41.328 59.5412C41.2413 58.8891 40.1546 57.8229 39.68 57.4625C38.6226 56.6615 37.556 57.4855 37.2453 58.5292C36.9693 59.4615 36.9426 60.512 36.8773 61.4812C36.7146 63.8412 37.064 66.1599 38.1053 68.2907C38.7973 69.712 39.884 70.8803 41.1706 71.7599C41.1706 71.7599 42.5573 72.4667 42.8333 70.8427L41.328 59.5412" fill="#F9B095"/>
<path d="M41.5493 60.9599C41.4867 60.4921 40.7106 59.7292 40.3693 59.4719C39.612 58.8984 38.8493 59.488 38.628 60.2349C38.4293 60.9041 38.412 61.6531 38.364 62.3479C38.2493 64.0375 38.4987 65.6959 39.2413 67.2197C39.7387 68.2375 40.516 69.0735 41.4373 69.7041C41.4373 69.7041 42.4293 70.2093 42.6266 69.0479L41.5493 60.9599Z" fill="#DD9C83"/>
<path d="M98.6506 61.6693C98.6506 69.1188 97.3946 76.6547 93.9613 83.1027C90.9613 88.7412 86.4573 93.2573 81.6253 96.864C77.704 99.7896 73.5 103.198 68.5373 102.781C63.3653 102.347 59.3373 97.8349 55.556 94.312C50.2413 89.3588 46.0466 83.2052 43.4626 75.9677C41.8693 71.5068 41.1373 66.4719 41.1373 61.6693C41.1373 37.58 54.012 22.428 69.8933 22.428C85.776 22.428 98.6506 37.58 98.6506 61.6693Z" fill="#F9B095"/>
<path d="M116.569 119.031L83.2679 110.321H56.5453L23.244 119.031C23.244 119.031 7.81061 124.747 6.09595 142.847H69.9066H133.716C132.001 124.747 116.569 119.031 116.569 119.031" fill="#F9B095"/>
<path d="M116.569 119.031L83.2679 110.321H56.5453L23.244 119.031C23.244 119.031 7.81061 124.747 6.09595 142.847H69.9066H133.716C132.001 124.747 116.569 119.031 116.569 119.031" fill="white"/>
<path d="M116.569 119.031L91.9239 112.585L69.9066 142.847L48.1266 112.522L23.244 119.031C23.244 119.031 7.81061 124.747 6.09595 142.847H69.9066H133.716C132.001 124.747 116.569 119.031 116.569 119.031Z" fill="#360609"/>
<path d="M66.984 127.685L60.8493 142.847H78.2827L72.3027 127.685H66.984Z" fill="#44BFA7"/>
<path d="M69.5039 110.619L61.6933 121.097L67.1226 127.728L69.78 127.684L72.4399 127.64L77.6506 120.837L69.5039 110.619" fill="#44BFA7"/>
<path d="M69.7079 127.685H69.7026L69.78 127.684L72.4399 127.64L77.6506 120.837L72.4399 127.64L69.7079 127.685ZM61.6933 121.097L69.1813 111.052L69.18 111.053L61.6933 121.097" fill="#D3D2D2"/>
<path d="M67.1226 127.728L67.0879 127.685L67.1226 127.728L69.7026 127.685H69.7079L67.1226 127.728Z" fill="#389D8A"/>
<path d="M67.1226 127.728L67.0879 127.685L61.6933 121.097L69.18 111.053C68.3026 113.365 66.7253 115.4 66.1373 117.844C65.5346 120.352 66.7346 122.819 69.3413 123.392C69.6066 123.449 69.864 123.477 70.1133 123.477C72.2453 123.477 73.8293 121.491 74.7226 119.724C74.9933 119.188 75.2306 118.636 75.4453 118.072L77.6506 120.837L72.4399 127.64L69.78 127.684L69.7026 127.685L67.1226 127.728" fill="#389D8A"/>
<path d="M69.9066 142.847L48.1266 112.522L30.7119 117.079L52.9666 132.745L47.2506 135.265L57.5373 142.847H69.9066" fill="#240204"/>
<path d="M69.9066 142.888L91.6866 112.565L109.1 117.119L86.8466 132.786L92.5626 135.308L82.2733 142.888H69.9066" fill="#240204"/>
<path d="M43.4386 110.96L56.5 104.833L69.8146 110.393L83.1306 104.833L97.0866 110.96L77.3546 124.171L69.8146 113.371L61.6933 124.171L43.4386 110.96Z" fill="#E5E4E4"/>
<path d="M86.74 92.5093C86.74 92.5093 93.9599 85.6812 95.5546 79.6563C95.5546 79.6563 87.036 87.3412 84.0666 86.524L86.74 92.5093" fill="#190D07"/>
<path d="M55.0773 94.5531C55.0773 94.5531 46.7093 87.3812 44.4066 78.3948C44.4066 78.3948 53.9559 89.4188 56.9239 88.5984L55.0773 94.5531Z" fill="#190D07"/>
<path d="M74.996 82.7292C79.7227 82.7932 82.296 84.4265 82.296 84.4265C86.4493 86.3828 87.508 91.7079 87.508 91.7079C87.508 91.7079 84.652 94.8683 81.1667 97.1041C73.288 103.634 69.672 102.809 69.672 102.809C65.1907 102.816 62.044 100.012 62.044 100.012L54.6707 94.2349C53.7533 87.6693 59.4813 84.4265 59.4813 84.4265C62.9173 82.7557 63.5387 82.9803 63.5387 82.9803C63.5387 82.9803 68.684 82.3787 69.944 84.4224C69.944 84.4224 71.2373 82.7292 74.7373 82.7292" fill="#1E100A"/>
<path d="M70.5946 88.1317C70.5946 88.1317 67.3586 86.5145 62.6519 88.2531C62.6519 88.2531 69.7973 95.8307 77.9093 88.3521C77.9093 88.3521 73.5626 86.3229 70.5946 88.1317" fill="#F9B095"/>
<path d="M98.9079 26.1373C105.387 21.4213 104.68 14.164 104.68 14.164C100.913 18.3067 95.3826 18.848 95.3826 18.848C101.1 15.42 98.2626 8.276 98.2626 8.276C96.4759 12.276 88.5239 14.5627 88.5239 14.5627C92.3826 11.9893 89.9786 6.13067 89.9786 6.13067C87.2906 10.704 79.2359 12.7053 79.2359 12.7053C84.5239 9.70268 85.0946 5.41734 85.0946 5.41734C80.3786 9.56001 67.5186 11.5613 67.5186 11.5613C67.5186 11.5613 53.3519 12.8507 49.8319 24.6227C39.4719 26.1147 39.3759 43.632 40.0946 53.088V53.0891L40.7506 64.5281H43.0519C42.0213 59.0495 43.0519 51.6188 43.0519 51.6188C44.6333 46.2948 45.4466 43.1467 46.4679 40.92C48.9253 35.56 52.7506 33.9333 55.1946 33.4547L57.516 33.2813C67.6613 31.796 70.6533 38.9973 70.6533 38.9973C72.2239 34.8533 77.5226 33.8533 77.5226 33.8533C92.9533 31.796 95.1666 43.9987 95.1666 43.9987L96.9093 51.764C97.1493 54.3495 97.5666 60.3375 96.7773 64.5281H99.08L99.7359 53.0891C99.7533 52.736 99.7506 52.4255 99.7333 52.1437C100.895 45.7667 101.927 35.372 98.9079 26.1373" fill="#190D07"/>
</svg>
