<svg width="141" height="142" viewBox="0 0 141 142" fill="none" xmlns="http://www.w3.org/2000/svg">
<path d="M140.241 70.4694C140.241 109.005 109.001 140.247 70.4653 140.247C31.928 140.247 0.687988 109.005 0.687988 70.4694C0.687988 31.9334 31.928 0.693361 70.4653 0.693361C109.001 0.693361 140.241 31.9334 140.241 70.4694Z" fill="#ED3947"/>
<path d="M37.76 64.7013C37.368 65.2733 36.1706 113.797 44.6973 123.732H92.9613C92.9613 123.732 106.141 86.4787 97.1626 64.7013H37.472H37.76" fill="#A15A1C"/>
<path d="M57.104 109.377H83.8253V91.3721H57.104V109.377Z" fill="#F9B095"/>
<path d="M76.5813 106.996C76.508 106.996 76.436 106.996 76.364 106.995C72.028 106.959 67.6107 105.991 63.5853 104.395C61.376 103.519 58.9787 102.337 57.104 100.684V91.372H83.8253V106.272C81.4467 106.692 78.9947 106.996 76.5813 106.996" fill="#E4A187"/>
<path d="M99.3879 57.4974C99.4799 56.8334 100.605 55.7547 101.096 55.392C102.195 54.58 103.301 55.4147 103.62 56.4694C103.907 57.4147 103.933 58.4787 104.001 59.4587C104.171 61.8494 103.807 64.196 102.729 66.352C102.012 67.7907 100.885 68.9734 99.5506 69.8667C99.5506 69.8667 98.1133 70.5814 97.8293 68.9374L99.3879 57.4974Z" fill="#F9B095"/>
<path d="M99.16 58.932C99.224 58.4574 100.028 57.6867 100.381 57.4253C101.168 56.8453 101.959 57.4427 102.188 58.1974C102.393 58.8734 102.412 59.6347 102.461 60.336C102.581 62.0467 102.321 63.7267 101.552 65.2694C101.037 66.2987 100.231 67.1453 99.2773 67.784C99.2773 67.784 98.248 68.2947 98.044 67.1187L99.16 58.932Z" fill="#DD9C83"/>
<path d="M40.8613 57.4974C40.7693 56.8334 39.644 55.7547 39.1533 55.392C38.056 54.58 36.9493 55.4147 36.6293 56.4694C36.3426 57.4147 36.316 58.4787 36.2466 59.4587C36.08 61.8494 36.4413 64.196 37.5186 66.352C38.2373 67.7907 39.3626 68.9734 40.6973 69.8667C40.6973 69.8667 42.136 70.5814 42.42 68.9374L40.8613 57.4974Z" fill="#F9B095"/>
<path d="M41.088 58.932C41.0253 58.4574 40.2213 57.6867 39.868 57.4253C39.0813 56.8453 38.2907 57.4427 38.0613 58.1974C37.8573 58.8734 37.8373 59.6347 37.788 60.336C37.668 62.0467 37.928 63.7267 38.6973 65.2694C39.2133 66.2987 40.0187 67.1453 40.9747 67.784C40.9747 67.784 42.0027 68.2947 42.2067 67.1187L41.088 58.932" fill="#DD9C83"/>
<path d="M100.267 59.648C100.267 67.192 98.964 74.82 95.4067 81.348C92.296 87.0574 87.6307 91.6267 82.6213 95.2787C78.56 98.24 74.2013 101.691 69.06 101.269C63.6987 100.829 59.5227 96.26 55.6067 92.6947C50.0973 87.68 45.7507 81.452 43.072 74.124C41.4213 69.6094 40.6627 64.5107 40.6627 59.648C40.6627 35.2627 54.0053 19.924 70.4653 19.924C86.9227 19.924 100.267 35.2627 100.267 59.648Z" fill="#F9B095"/>
<path d="M111.12 117.517L82.1053 108.809H58.824L29.8093 117.517C29.8093 117.517 16.3627 123.235 14.8693 141.335H70.4653H126.061C124.567 123.235 111.12 117.517 111.12 117.517Z" fill="#F9B095"/>
<path d="M102.489 114.928L95.076 112.703L70.4653 137.295L45.7827 112.725L39.9827 114.464C39.9827 114.464 42.156 123.235 40.6627 141.335H70.4653H100.935C99.4413 123.235 102.489 114.928 102.489 114.928Z" fill="#3BBEC5"/>
<path d="M42.42 45.208C42.42 45.208 49.476 48.7894 67.8147 49.744L71.8266 36.7134L72.7813 49.744C72.7813 49.744 78.3227 50.1267 87.8747 48.5974L89.5933 41.3387L91.6946 48.216C91.6946 48.216 96.8533 47.8347 98.356 44.6454C98.356 44.6454 95.324 20.7067 73.164 18.604C73.164 18.604 48.06 18.9694 42.42 45.208Z" fill="#F9A72B"/>
<path d="M54.2506 22.316C53.564 21.9787 57.072 17.5534 57.2746 17.348C61.2466 13.364 67.2866 11.988 72.7426 12.3147C87.408 13.192 98.612 22.0547 103.744 35.7547C105.512 40.4747 106.731 45.8667 107.168 50.8907C107.169 50.9 110.035 83.7774 107.168 116.332C107.168 116.332 106.024 127.536 106.977 139.657C106.977 139.657 94.9426 142.505 95.516 119.473L96.6613 86.6147L98.356 57.7094C98.356 57.7094 99.1453 44.204 93.796 41.7213L54.2506 22.316" fill="#F9A72B"/>
<path d="M62.8067 18.3387C62.8067 18.3387 37.6187 19.2 39.1533 55.392L40.6626 57.4627C40.6626 57.4627 48.7107 35.9894 61.7013 31.2134L62.8067 18.3387" fill="#F9A72B"/>
<path d="M49.7666 111.529L39.9826 114.464C34.5746 97.8867 37.5186 66.352 37.5186 66.352C37.5186 66.352 39.78 70.472 41.8466 70.02C41.8466 70.0213 43.5533 76.108 45.3013 79.2454C45.288 88.06 45.612 101.304 49.7666 111.529" fill="#F9A72B"/>
</svg>
