<svg width="140" height="142" viewBox="0 0 140 142" fill="none" xmlns="http://www.w3.org/2000/svg">
<path d="M139.683 70.028C139.683 108.564 108.443 139.804 69.9066 139.804C31.3693 139.804 0.129272 108.564 0.129272 70.028C0.129272 31.492 31.3693 0.252006 69.9066 0.252006C108.443 0.252006 139.683 31.492 139.683 70.028Z" fill="#F9A72B"/>
<path d="M58.9093 109.507H85.6317V91.5025H58.9093V109.507Z" fill="#F9B095"/>
<path d="M78.4013 107.125C78.324 107.125 78.2466 107.124 78.1706 107.124C73.8346 107.089 69.4146 106.12 65.3906 104.525C63.1826 103.648 60.7853 102.467 58.9093 100.815V91.5026H85.632V106.401C83.256 106.821 80.8093 107.125 78.4013 107.125" fill="#E4A187"/>
<path d="M101.195 57.6253C101.285 56.9626 102.411 55.884 102.903 55.5213C104 54.7093 105.105 55.544 105.425 56.6C105.712 57.544 105.739 58.608 105.808 59.5893C105.975 61.9786 105.613 64.3267 104.536 66.4827C103.819 67.9213 102.692 69.1026 101.357 69.996C101.357 69.996 99.92 70.7107 99.6346 69.068L101.195 57.6253" fill="#F9B095"/>
<path d="M100.965 59.0613C101.031 58.588 101.835 57.816 102.188 57.5547C102.972 56.9747 103.764 57.572 103.993 58.328C104.197 59.004 104.219 59.764 104.267 60.4667C104.387 62.1773 104.128 63.856 103.359 65.3987C102.843 66.428 102.036 67.2747 101.081 67.9134C101.081 67.9134 100.053 68.424 99.848 67.248L100.965 59.0613" fill="#DD9C83"/>
<path d="M42.6666 57.6253C42.5759 56.9626 41.4506 55.884 40.9586 55.5213C39.8613 54.7093 38.7546 55.544 38.4346 56.6C38.1479 57.544 38.1226 58.608 38.0533 59.5893C37.8853 61.9786 38.2479 64.3267 39.3239 66.4827C40.0426 67.9213 41.1693 69.1026 42.5026 69.996C42.5026 69.996 43.9413 70.7107 44.2266 69.068L42.6666 57.6253" fill="#F9B095"/>
<path d="M42.8959 59.0613C42.8306 58.588 42.0266 57.816 41.6733 57.5547C40.8879 56.9747 40.0959 57.572 39.8666 58.328C39.6626 59.004 39.6426 59.764 39.5933 60.4667C39.4733 62.1773 39.7333 63.856 40.5026 65.3987C41.0173 66.428 41.824 67.2747 42.7786 67.9134C42.7786 67.9134 43.8066 68.424 44.012 67.248L42.8959 59.0613Z" fill="#DD9C83"/>
<path d="M102.072 59.7787C102.072 67.3213 100.771 74.9493 97.212 81.4773C94.1027 87.1867 89.4373 91.7573 84.428 95.408C80.3653 98.3693 76.008 101.82 70.864 101.399C65.504 100.959 61.3293 96.3906 57.412 92.824C51.904 87.8106 47.556 81.5813 44.8773 74.2546C43.2267 69.7386 42.468 64.64 42.468 59.7787C42.468 35.392 55.8107 20.0533 72.2707 20.0533C88.7293 20.0533 102.072 35.392 102.072 59.7787" fill="#F9B095"/>
<path d="M118.933 117.648L85.632 108.939H58.9093L25.608 117.648C25.608 117.648 10.1746 123.365 8.45996 141.464H72.2706H136.08C134.365 123.365 118.933 117.648 118.933 117.648" fill="#F9B095"/>
<path d="M118.933 117.648L85.632 108.939H58.9093L25.608 117.648C25.608 117.648 10.1746 123.365 8.45996 141.464H72.2706H136.08C134.365 123.365 118.933 117.648 118.933 117.648" fill="white"/>
<path d="M50.4893 31.712C50.4893 31.712 60.4866 46.5773 85.632 48.292C85.632 48.292 83.5279 47.3387 81.0519 40.8613C81.0519 40.8613 89.256 47.9107 99.6346 52.4827L102.025 57.3213C102.025 57.3213 102.007 54.852 104.295 55.2867C104.295 55.2867 106.201 35.908 98.1986 26.38C98.1986 26.38 102.024 26.5707 104.493 28.668C104.493 28.668 100.867 21.0453 88.4826 16.8547C88.4826 16.8547 91.5306 14.3773 97.056 16.0907C97.056 16.0907 89.7453 12.6627 77.492 13.2333C77.492 13.2333 53.46 12.2733 50.4893 31.712" fill="#351F17"/>
<path d="M54.3773 35.2467L42.5186 57.2227C42.5186 57.2227 41.4626 55.9493 40.9586 55.5213C40.9586 55.5213 40.3493 25.3333 57.0613 19.6173L54.3773 35.2467Z" fill="#351F17"/>
<path d="M118.933 117.648L94.288 111.203L72.2706 141.464L50.4893 111.141L25.608 117.648C25.608 117.648 10.1746 123.365 8.45996 141.464H72.2706H136.08C134.365 123.365 118.933 117.648 118.933 117.648" fill="#393536"/>
<path d="M69.348 126.303L63.2133 141.464H80.6466L74.6666 126.303H69.348Z" fill="#BE1A2C"/>
<path d="M71.868 109.236L64.0573 119.715L69.4866 126.344L72.144 126.301L74.804 126.257L80.0146 119.455L71.868 109.236" fill="#BF1B2C"/>
<path d="M80.0146 119.455L77.8093 116.689L80.0146 119.455Z" fill="#D3D2D2"/>
<path d="M69.4866 126.344L64.0573 119.715L71.5453 109.671C70.6666 111.983 69.0893 114.017 68.5013 116.461C67.8986 118.969 69.0986 121.436 71.7053 122.009C71.9706 122.068 72.228 122.095 72.4786 122.095C74.6093 122.095 76.1933 120.108 77.0866 118.34C77.3573 117.805 77.5946 117.252 77.8093 116.689L80.0146 119.455L74.804 126.257L69.4866 126.344" fill="#9F1523"/>
<path d="M72.2706 141.464L50.4893 111.141L33.076 115.695L55.3306 131.363L49.6133 133.884L59.9013 141.464H72.2706" fill="#302D2E"/>
<path d="M72.2706 141.505L94.0506 111.183L111.464 115.736L89.2106 131.404L94.9266 133.925L84.6373 141.505H72.2706" fill="#302D2E"/>
<path d="M45.8026 109.576L58.8639 103.449L72.1786 109.011L85.4946 103.449L99.4506 109.576L79.7186 122.788L72.1786 111.989L64.0573 122.788L45.8026 109.576" fill="#E5E4E4"/>
</svg>
