<svg width="140" height="141" viewBox="0 0 140 141" fill="none" xmlns="http://www.w3.org/2000/svg">
<path d="M139.8 70.4694C139.8 109.005 108.56 140.247 70.0234 140.247C31.4869 140.247 0.246887 109.005 0.246887 70.4694C0.246887 31.9334 31.4869 0.693361 70.0234 0.693361C108.56 0.693361 139.8 31.9334 139.8 70.4694Z" fill="#648F16"/>
<path d="M57.251 106.408H83.9734V88.4028H57.251V106.408Z" fill="#F9B095"/>
<path d="M76.7421 104.025C76.665 104.025 76.5885 104.025 76.512 104.025C72.1765 103.991 67.7578 103.021 63.7322 101.425C61.5245 100.549 59.127 99.3667 57.251 97.716V88.4027H83.9734V103.303C81.5978 103.723 79.1516 104.025 76.7421 104.025" fill="#E4A187"/>
<path d="M98.5106 55.0613C98.596 54.408 99.6813 53.3414 100.157 52.9814C101.216 52.18 102.283 53.004 102.592 54.048C102.868 54.98 102.895 56.0307 102.961 57C103.123 59.3614 102.773 61.6787 101.733 63.8107C101.041 65.2307 99.9533 66.3974 98.6666 67.28C98.6666 67.28 97.28 67.9853 97.004 66.3627L98.5106 55.0613" fill="#F9B095"/>
<path d="M98.288 56.4787C98.3493 56.0107 99.128 55.2494 99.4666 54.9907C100.224 54.4174 100.989 55.0067 101.211 55.7533C101.408 56.4227 101.427 57.172 101.473 57.8667C101.589 59.556 101.34 61.2147 100.596 62.7387C100.099 63.756 99.3213 64.592 98.4013 65.224C98.4013 65.224 97.408 65.728 97.212 64.5667L98.288 56.4787Z" fill="#DD9C83"/>
<path d="M42.0338 55.0613C41.9458 54.408 40.8604 53.3414 40.386 52.9814C39.3276 52.18 38.2604 53.004 37.9505 54.048C37.6745 54.98 37.6489 56.0307 37.5817 57C37.4202 59.3614 37.7702 61.6787 38.8093 63.8107C39.5026 65.2307 40.589 66.3974 41.8776 67.28C41.8776 67.28 43.2636 67.9853 43.5406 66.3627L42.0338 55.0613" fill="#F9B095"/>
<path d="M42.2546 56.4787C42.1926 56.0107 41.4161 55.2494 41.076 54.9907C40.3177 54.4174 39.5546 55.0067 39.3328 55.7533C39.1354 56.4227 39.1172 57.172 39.0702 57.8667C38.9536 59.556 39.2041 61.2147 39.9473 62.7387C40.4432 63.756 41.2213 64.592 42.1426 65.224C42.1426 65.224 43.136 65.728 43.3333 64.5667L42.2546 56.4787" fill="#DD9C83"/>
<path d="M99.3559 57.188C99.3559 64.6387 98.0999 72.1733 94.6679 78.6213C91.6661 84.26 87.1635 88.776 82.3306 92.3827C78.4109 95.308 74.2057 98.7173 69.2431 98.3C64.0702 97.8667 60.0417 93.3533 56.2625 89.8307C50.9473 84.8773 46.7526 78.7253 44.1671 71.4853C42.5759 67.0267 41.8431 61.9907 41.8431 57.188C41.8431 33.0987 54.7166 17.948 70.5994 17.948C86.4817 17.948 99.3559 33.0987 99.3559 57.188Z" fill="#F9B095"/>
<path d="M117.275 114.549L83.9734 105.84H57.251L23.9484 114.549C23.9484 114.549 8.51557 120.265 6.80157 138.365H70.612H134.423C132.708 120.265 117.275 114.549 117.275 114.549Z" fill="#F9B095"/>
<path d="M117.275 114.549L83.9734 105.84H57.251L23.9484 114.549C23.9484 114.549 8.51557 120.265 6.80157 138.365H70.612H134.423C132.708 120.265 117.275 114.549 117.275 114.549Z" fill="white"/>
<path d="M117.275 114.549L92.6297 108.104L70.612 138.365L48.8317 108.041L23.9484 114.549C23.9484 114.549 8.51557 120.265 6.80157 138.365H70.612H134.423C132.708 120.265 117.275 114.549 117.275 114.549Z" fill="#233D3D"/>
<path d="M67.6901 123.204L61.5541 138.365H78.9875L73.0079 123.204H67.6901Z" fill="#ED3947"/>
<path d="M70.2104 106.137L62.3989 116.615L67.8281 123.245L70.4875 123.203L73.1448 123.159L78.3563 116.356L70.2104 106.137Z" fill="#ED3947"/>
<path d="M62.3989 116.615L69.8864 106.571L69.886 106.572L62.3989 116.615" fill="#D3D2D2"/>
<path d="M67.8281 123.245L62.3989 116.615L69.886 106.572C69.0084 108.885 67.4307 110.919 66.8437 113.363C66.2396 115.871 67.4401 118.337 70.0479 118.911C70.3131 118.968 70.5703 118.996 70.8203 118.996C72.9505 118.996 74.5333 117.009 75.4292 115.243C75.6979 114.707 75.936 114.155 76.1516 113.591L78.3563 116.356L73.1448 123.159L67.8281 123.245" fill="#C42E39"/>
<path d="M70.612 138.365L48.8317 108.041L31.4188 112.596L53.6718 128.264L47.9562 130.784L58.2442 138.365H70.612" fill="#1A2C2D"/>
<path d="M70.612 138.407L92.3912 108.084L109.805 112.637L87.5516 128.305L93.2683 130.827L82.9797 138.407H70.612Z" fill="#1A2C2D"/>
<path d="M44.1453 106.479L57.2057 100.352L70.5213 105.912L83.8364 100.352L97.792 106.479L78.0599 119.689L70.5213 108.889L62.3989 119.689L44.1453 106.479" fill="#E5E4E4"/>
<path d="M87.4458 88.028C87.4458 88.028 94.6653 81.2 96.26 75.1734C96.26 75.1734 87.7417 82.86 84.7729 82.0427L87.4458 88.028" fill="#190D07"/>
<path d="M55.7833 90.0707C55.7833 90.0707 47.414 82.9 45.1136 73.9147C45.1136 73.9147 54.6615 84.9374 57.6307 84.1174L55.7833 90.0707" fill="#190D07"/>
<path d="M75.6999 78.248C80.427 78.312 83.003 79.9454 83.003 79.9454C87.1546 81.9014 88.2139 87.2267 88.2139 87.2267C88.2139 87.2267 85.3583 90.3867 81.8718 92.6227C73.9926 99.1534 70.3781 98.328 70.3781 98.328C65.8958 98.3347 62.75 95.5307 62.75 95.5307L55.377 89.7534C54.4604 83.188 60.1874 79.9454 60.1874 79.9454C63.6229 78.276 64.2431 78.4987 64.2431 78.4987C64.2431 78.4987 69.3901 77.8974 70.6489 79.9414C70.6489 79.9414 71.9431 78.248 75.4431 78.248" fill="#1E100A"/>
<path d="M71.3 83.6507C71.3 83.6507 68.065 82.0334 63.3573 83.772C63.3573 83.772 70.503 91.348 78.615 83.8707C78.615 83.8707 74.2682 81.8414 71.3 83.6507Z" fill="#F9B095"/>
</svg>
