<svg width="140" height="140" viewBox="0 0 140 140" fill="none" xmlns="http://www.w3.org/2000/svg">
<path d="M139.8 70.028C139.8 108.564 108.56 139.804 70.0234 139.804C31.4869 139.804 0.246887 108.564 0.246887 70.028C0.246887 31.492 31.4869 0.252006 70.0234 0.252006C108.56 0.252006 139.8 31.492 139.8 70.028Z" fill="#183651"/>
<path d="M56.663 107.775H83.3849V89.7706H56.663V107.775Z" fill="#F9B095"/>
<path d="M76.1546 105.392C76.0776 105.392 76.0005 105.392 75.9234 105.392C71.588 105.357 67.1693 104.388 63.1437 102.792C60.936 101.916 58.5385 100.733 56.663 99.0827V89.7707H83.3849V104.669C81.0098 105.089 78.564 105.392 76.1546 105.392" fill="#E4A187"/>
<path d="M99.5133 56.428C99.6053 55.7747 100.752 54.708 101.255 54.348C102.372 53.548 103.5 54.372 103.827 55.4147C104.119 56.3467 104.145 57.3974 104.216 58.3667C104.387 60.7267 104.019 63.0454 102.92 65.1774C102.188 66.5974 101.04 67.7654 99.6786 68.648C99.6786 68.648 98.2146 69.3534 97.9226 67.7294L99.5133 56.428Z" fill="#F9B095"/>
<path d="M99.2786 57.8454C99.3453 57.3774 100.167 56.6147 100.525 56.3587C101.325 55.7853 102.133 56.3747 102.365 57.12C102.575 57.788 102.595 58.54 102.645 59.2333C102.768 60.924 102.503 62.5814 101.717 64.1067C101.195 65.124 100.372 65.9587 99.3986 66.5907C99.3986 66.5907 98.3506 67.0947 98.1413 65.9333L99.2786 57.8454" fill="#DD9C83"/>
<path d="M39.8536 56.428C39.7625 55.7747 38.6145 54.708 38.1125 54.348C36.9948 53.548 35.8672 54.372 35.5406 55.4147C35.2484 56.3467 35.2213 57.3974 35.1516 58.3667C34.9797 60.7267 35.3494 63.0454 36.4473 65.1774C37.1802 66.5974 38.3276 67.7654 39.6874 68.648C39.6874 68.648 41.153 69.3534 41.4437 67.7294L39.8536 56.428Z" fill="#F9B095"/>
<path d="M40.0869 57.8454C40.0213 57.3774 39.201 56.6147 38.8417 56.3587C38.0417 55.7853 37.2344 56.3747 37.0016 57.12C36.7921 57.788 36.7729 58.54 36.7213 59.2333C36.5994 60.924 36.8645 62.5814 37.6505 64.1067C38.174 65.124 38.9953 65.9587 39.9682 66.5907C39.9682 66.5907 41.0171 67.0947 41.225 65.9333L40.0869 57.8454" fill="#DD9C83"/>
<path d="M100.408 58.5547C100.408 66.0053 99.0813 73.5413 95.4546 79.988C92.2838 85.6267 87.5281 90.1427 82.4234 93.7494C78.2817 96.6747 73.839 100.084 68.5983 99.6667C63.1343 99.232 58.877 94.72 54.8849 91.1973C49.2687 86.244 44.8379 80.0907 42.1083 72.8533C40.425 68.3933 39.6526 63.3573 39.6526 58.5547C39.6526 34.4653 53.253 19.3134 70.0302 19.3134C86.8073 19.3134 100.408 34.4653 100.408 58.5547" fill="#F9B095"/>
<path d="M116.687 115.916L83.3849 107.207H56.663L23.3614 115.916C23.3614 115.916 7.92701 121.632 6.21301 139.732H70.0234H133.833C132.119 121.632 116.687 115.916 116.687 115.916Z" fill="#F9B095"/>
<path d="M116.687 115.916L83.3849 107.207H56.663L23.3614 115.916C23.3614 115.916 7.92701 121.632 6.21301 139.732H70.0234H133.833C132.119 121.632 116.687 115.916 116.687 115.916Z" fill="white"/>
<path d="M116.687 115.916L92.0411 109.471L70.0234 139.732L48.2431 109.408L23.3614 115.916C23.3614 115.916 7.92701 121.632 6.21301 139.732H70.0234H133.833C132.119 121.632 116.687 115.916 116.687 115.916Z" fill="#062138"/>
<path d="M67.1015 124.571L60.9655 139.732H78.3988L72.4187 124.571H67.1015Z" fill="#F9A72B"/>
<path d="M69.6224 107.504L61.8104 117.983L67.2401 124.612L69.8989 124.569L72.5562 124.525L77.7682 117.723L69.6224 107.504" fill="#F9A72B"/>
<path d="M61.8104 117.983L69.2984 107.937C69.2978 107.939 69.2973 107.939 69.2973 107.94L61.8104 117.983" fill="#D3D2D2"/>
<path d="M67.2401 124.612L61.8104 117.983L69.2973 107.94C68.4193 110.252 66.8421 112.287 66.2552 114.728C65.651 117.237 66.8516 119.704 69.4593 120.277C69.725 120.335 69.9822 120.363 70.2328 120.363C72.3636 120.363 73.9453 118.376 74.8406 116.608C75.1093 116.073 75.3484 115.52 75.563 114.957L77.7682 117.723L72.5562 124.525L67.2401 124.612" fill="#CD8923"/>
<path d="M100.84 55.588C100.84 55.588 95.8853 78.76 79.2499 85.4267C79.2499 85.4267 77.1754 90.572 70.2822 90.572C63.3901 90.572 61.3145 85.4267 61.3145 85.4267C44.6797 78.76 39.7245 55.588 39.7245 55.588C38.2786 81.5213 56.9401 92.796 56.9401 92.796C67.1093 101.117 70.2822 99.688 70.2822 99.688C70.2822 99.688 73.4562 101.117 83.6239 92.796C83.6239 92.796 102.103 82.284 100.84 55.588Z" fill="#351F17"/>
<path d="M70.0234 77.6853C70.0234 77.6853 63.1478 75.588 61.3145 85.4267C61.3145 85.4267 59.3702 85.176 56.2838 82.7107C56.2838 82.7107 60.9015 71.1813 70.0234 77.6853Z" fill="#351F17"/>
<path d="M70.6119 77.6853C70.6119 77.6853 77.489 75.588 79.3202 85.4267C79.3202 85.4267 81.265 85.176 84.3515 82.7107C84.3515 82.7107 79.7338 71.1813 70.6119 77.6853Z" fill="#351F17"/>
<path d="M39.7245 55.588C39.7245 55.588 44.1827 28.4587 58.0911 31.1254C58.0911 31.1254 70.6661 38.9494 81.1458 30.9427C81.1458 30.9427 93.8603 30.5133 100.84 55.588C100.84 55.588 102.581 28.84 83.3849 19.3134C83.3849 19.3134 65.625 11.12 50.4265 23.3147C50.4265 23.3147 36.0291 34.6907 39.7245 55.588" fill="#351F17"/>
<path d="M70.0234 139.732L48.2431 109.408L30.8302 113.963L53.0833 129.629L47.3677 132.151L57.6557 139.732H70.0234" fill="#001930"/>
<path d="M70.0234 139.773L91.8026 109.451L109.217 114.004L86.963 129.672L92.6797 132.193L82.3912 139.773H70.0234Z" fill="#001930"/>
<path d="M43.5568 107.844L56.6172 101.717L69.9328 107.279L83.2478 101.717L97.2026 107.844L77.4713 121.056L69.9328 110.256L61.8104 121.056L43.5568 107.844" fill="#E5E4E4"/>
</svg>
