<svg width="140" height="140" viewBox="0 0 140 140" fill="none" xmlns="http://www.w3.org/2000/svg">
<path d="M139.8 69.9104C139.8 108.447 108.56 139.688 70.0234 139.688C31.4869 139.688 0.246887 108.447 0.246887 69.9104C0.246887 31.3747 31.4869 0.134691 70.0234 0.134691C108.56 0.134691 139.8 31.3747 139.8 69.9104Z" fill="#724230"/>
<path d="M56.3213 107.175H83.0437V89.1709H56.3213V107.175Z" fill="#F9B095"/>
<path d="M75.8125 104.793C75.7354 104.793 75.6588 104.792 75.5822 104.792C71.2469 104.757 66.8281 103.788 62.8026 102.193C60.5948 101.316 58.1973 100.134 56.3213 98.4828V89.1708H83.0437V104.069C80.6682 104.49 78.2218 104.793 75.8125 104.793" fill="#E4A187"/>
<path d="M99.172 55.8281C99.264 55.1745 100.412 54.1079 100.913 53.7495C102.031 52.9479 103.16 53.7719 103.485 54.8145C103.777 55.7479 103.805 56.7984 103.875 57.7667C104.045 60.1281 103.677 62.4469 102.579 64.5771C101.847 65.9984 100.699 67.1651 99.3373 68.0479C99.3373 68.0479 97.8733 68.7531 97.5826 67.1292L99.172 55.8281" fill="#F9B095"/>
<path d="M98.9386 57.2469C99.004 56.7787 99.8253 56.0145 100.184 55.7588C100.984 55.1855 101.792 55.7745 102.025 56.5213C102.233 57.1891 102.253 57.9401 102.304 58.6344C102.427 60.324 102.163 61.9812 101.376 63.5068C100.853 64.524 100.031 65.3588 99.0573 65.9907C99.0573 65.9907 98.0093 66.4959 97.8013 65.3349L98.9386 57.2469" fill="#DD9C83"/>
<path d="M39.5125 55.8281C39.4213 55.1745 38.2734 54.1079 37.7713 53.7495C36.6536 52.9479 35.526 53.7719 35.1989 54.8145C34.9078 55.7479 34.8802 56.7984 34.8104 57.7667C34.6385 60.1281 35.0084 62.4469 36.1062 64.5771C36.839 65.9984 37.9864 67.1651 39.3464 68.0479C39.3464 68.0479 40.812 68.7531 41.1027 67.1292L39.5125 55.8281" fill="#F9B095"/>
<path d="M39.7464 57.2469C39.6802 56.7787 38.8598 56.0145 38.5005 55.7588C37.7005 55.1855 36.8931 55.7745 36.6598 56.5213C36.451 57.1891 36.4317 57.9401 36.3802 58.6344C36.2583 60.324 36.5234 61.9812 37.3093 63.5068C37.8327 64.524 38.6541 65.3588 39.627 65.9907C39.627 65.9907 40.6754 66.4959 40.8843 65.3349L39.7464 57.2469" fill="#DD9C83"/>
<path d="M100.067 57.9547C100.067 65.4052 98.7399 72.9412 95.1133 79.3891C91.9426 85.0281 87.1869 89.5427 82.0817 93.1495C77.9406 96.0745 73.4978 99.4839 68.2573 99.0667C62.7926 98.6333 58.5359 94.1197 54.5437 90.5984C48.9275 85.6437 44.4969 79.4921 41.7671 72.2531C40.0838 67.7932 39.3114 62.7573 39.3114 57.9547C39.3114 33.8667 52.9119 18.7133 69.689 18.7133C86.4661 18.7133 100.067 33.8667 100.067 57.9547Z" fill="#F9B095"/>
<path d="M116.345 115.316L83.0437 106.607H56.3213L23.0202 115.316C23.0202 115.316 7.58596 121.032 5.87183 139.132H69.6822H133.493C131.779 121.032 116.345 115.316 116.345 115.316" fill="#F9B095"/>
<path d="M116.345 115.316L83.0437 106.607H56.3213L23.0202 115.316C23.0202 115.316 7.58596 121.032 5.87183 139.132H69.6822H133.493C131.779 121.032 116.345 115.316 116.345 115.316" fill="white"/>
<path d="M116.345 115.316L91.7 108.871L69.6822 139.132L47.9026 108.809L23.0202 115.316C23.0202 115.316 7.58596 121.032 5.87183 139.132H69.6822H133.493C131.779 121.032 116.345 115.316 116.345 115.316" fill="#062138"/>
<path d="M66.7604 123.971L60.6245 139.132H78.0578L72.0776 123.971H66.7604Z" fill="#F9A72B"/>
<path d="M69.2812 106.904L61.4693 117.383L66.8989 124.012L69.5578 123.969L72.2145 123.925L77.427 117.123L69.2812 106.904" fill="#F9A72B"/>
<path d="M61.4693 117.383L68.9573 107.339C68.9568 107.339 68.9562 107.34 68.9562 107.34L61.4693 117.383" fill="#D3D2D2"/>
<path d="M66.8989 124.012L61.4693 117.383L68.9562 107.34C68.0781 109.652 66.501 111.686 65.914 114.129C65.3098 116.637 66.5104 119.104 69.1182 119.677C69.3838 119.736 69.6412 119.763 69.8917 119.763C72.0224 119.763 73.6036 117.776 74.4994 116.008C74.7682 115.473 75.0073 114.92 75.2218 114.357L77.427 117.123L72.2145 123.925L66.8989 124.012" fill="#CD8923"/>
<path d="M39.3833 54.9896C39.3833 54.9896 43.8417 27.8587 57.7499 30.5267C57.7499 30.5267 70.325 38.3493 80.8046 30.3427C80.8046 30.3427 93.5193 29.9147 100.499 54.9896C100.499 54.9896 102.24 28.24 83.0437 18.7133C83.0437 18.7133 65.2838 10.52 50.0854 22.7147C50.0854 22.7147 35.6879 34.0907 39.3833 54.9896" fill="#351F17"/>
<path d="M69.6822 139.132L47.9026 108.809L30.489 113.363L52.7421 129.031L47.0265 131.552L57.3145 139.132H69.6822" fill="#001930"/>
<path d="M69.6823 139.173L91.4615 108.851L108.876 113.404L86.6219 129.072L92.3385 131.593L82.05 139.173H69.6823Z" fill="#001930"/>
<path d="M43.2156 107.244L56.276 101.117L69.5917 106.679L82.9068 101.117L96.8613 107.244L77.1302 120.456L69.5917 109.657L61.4693 120.456L43.2156 107.244" fill="#E5E4E4"/>
</svg>
