<svg width="140" height="141" viewBox="0 0 140 141" fill="none" xmlns="http://www.w3.org/2000/svg">
<path d="M139.683 70.4694C139.683 109.005 108.443 140.247 69.9066 140.247C31.3693 140.247 0.129272 109.005 0.129272 70.4694C0.129272 31.9334 31.3693 0.693361 69.9066 0.693361C108.443 0.693361 139.683 31.9334 139.683 70.4694Z" fill="#4BB1DD"/>
<path d="M48.5666 66.5827C48.2586 67.0134 47.5373 103.276 54.3293 110.656L92.5026 110.419C92.5026 110.419 102.756 82.5187 95.5533 66.288L48.3386 66.584L48.5666 66.5827" fill="#231F20"/>
<path d="M85.5013 107.336L58.78 107.503L58.668 89.4987L85.3893 89.332L85.5013 107.336Z" fill="#F9B095"/>
<path d="M58.7266 98.8107C58.7266 98.8107 58.7266 98.8107 58.7253 98.8107L58.668 89.4987L58.7266 98.8107Z" fill="#231F20"/>
<path d="M78.0773 105C78.06 105 78.0426 105 78.0253 105C73.6906 104.992 69.2666 104.051 65.2306 102.479C63.016 101.619 60.6133 100.451 58.7266 98.8107L58.668 89.4987L85.3893 89.332L85.4827 104.231C83.0507 104.676 80.5466 105 78.0773 105" fill="#E4A187"/>
<path d="M101.633 57.5053C101.679 65.0493 100.425 72.6853 96.908 79.2347C93.8333 84.9627 89.196 89.5613 84.2106 93.2453C80.1666 96.232 75.8306 99.7093 70.6853 99.32C65.3226 98.9147 61.1173 94.3707 57.1786 90.8307C51.64 85.8507 47.2533 79.648 44.5293 72.3387C42.8519 67.8347 42.0599 62.74 42.0293 57.8774C41.8773 33.492 55.1253 18.0693 71.5839 17.968C88.0426 17.8653 101.481 33.12 101.633 57.5053" fill="#F9B095"/>
<path d="M112.847 115.308L83.7786 106.779L72.1373 106.852L60.4973 106.924L31.5359 115.815C31.5359 115.815 18.1279 121.615 16.7466 139.723L72.3399 139.376L127.936 139.031C126.329 120.94 112.847 115.308 112.847 115.308" fill="#F9B095"/>
<path d="M112.847 115.308L96.7719 110.591L72.3146 135.337L47.4799 110.92L31.5359 115.815C31.5359 115.815 17.8159 121.707 16.7466 139.723L98.0359 139.216L128.507 139.027C125.683 120.269 112.847 115.308 112.847 115.308" fill="#183651"/>
<path d="M43.6973 43.4267C50.7386 50.2414 73.152 48.6334 70.4053 48.5054L73.0506 34.7494L74.8013 48.708C74.8013 48.708 79.0146 50.3387 88.556 48.7507L90.8466 39.2614L92.544 48.0267C92.544 48.0267 99.0733 46.2507 100.556 43.0534C100.556 43.0534 99.26 18.9387 74.276 16.632C74.276 16.632 49.1733 17.1534 43.6973 43.4267Z" fill="#231F20"/>
<path d="M92.3933 24.7147C92.3933 24.7147 103.431 94.876 88.9626 114.003C88.9626 114.003 103.797 108.101 105.648 96.0933C105.648 96.0933 117.36 44.8054 92.3933 24.7147Z" fill="#231F20"/>
<path d="M55.5586 24.4254C55.5586 24.4254 43.7013 95.248 58.4066 114.195C58.4066 114.195 43.4986 108.477 41.4999 96.4934C41.4999 96.4934 30.8453 44.8254 55.5586 24.4254Z" fill="#231F20"/>
<path d="M46.8999 111.105L72.5519 137.221L100.16 111.585L91.9973 108.407L72.1719 112.388L56.1746 106.951L46.8999 111.105Z" fill="#E5E4E4"/>
<path d="M46.8999 111.105L59.2773 105.561L71.9599 110.445L84.5826 105.403L97.8746 110.788L79.1959 122.691L71.9759 113.101L64.3159 122.783L46.8999 111.105" fill="#CFCECE"/>
</svg>
